Coordinates
version=1
nRows=8
nColumns=40
inDegrees=yes

Units are S.I. units (second, meters, Newtons, ...)
Angles are in degrees.

endheader
time	pelvis_tilt	pelvis_list	pelvis_rotation	pelvis_tx	pelvis_ty	pelvis_tz	hip_flexion_r	hip_adduction_r	hip_rotation_r	knee_angle_r	knee_angle_r_beta	ankle_angle_r	subtalar_angle_r	mtp_angle_r	hip_flexion_l	hip_adduction_l	hip_rotation_l	knee_angle_l	knee_angle_l_beta	ankle_angle_l	subtalar_angle_l	mtp_angle_l	lumbar_extension	lumbar_bending	lumbar_rotation	arm_flex_r	arm_add_r	arm_rot_r	elbow_flex_r	pro_sup_r	wrist_flex_r	wrist_dev_r	arm_flex_l	arm_add_l	arm_rot_l	elbow_flex_l	pro_sup_l	wrist_flex_l	wrist_dev_l
     19.06000000	     -4.62931966	     -3.53306200	     12.47482775	      0.83222534	      0.91335725	      0.45437599	      0.18566472	     -0.01615464	    -20.71769355	     21.22535429	     21.22535429	     19.29336697	     -8.70278162	     -2.26881435	     27.67222393	     -4.19594075	      6.47742484	     31.75102716	     31.75102716	     11.29983444	    -13.35388705	      7.54243274	     -8.63569148	      4.04804351	      6.39312524	     46.45892440	     -5.53120616	     12.27682818	     85.67730395	     43.89429600	      0.00000000	      0.00000000	     -9.46218594	    -10.92263336	    -10.08521180	     43.70090440	     45.46434120	      0.00000000	      0.00000000
     19.07857143	     -4.85948726	     -3.54873692	     12.24413708	      0.83249472	      0.91430965	      0.44962973	     -0.08566932	     -0.37288347	    -20.78869694	     21.04652257	     21.04652257	     18.77709632	     -8.20137696	     -2.41809218	     27.25381282	     -3.92379433	      6.42773677	     31.50214888	     31.50214888	     11.53550183	    -13.80498001	      7.84018946	     -8.52580008	      4.06526241	      6.90490340	     46.40322851	     -6.21769337	     12.03109260	     84.60670461	     43.95008442	      0.00000000	      0.00000000	     -8.52605946	    -11.09238416	    -10.28644618	     45.10794071	     45.51763329	      0.00000000	      0.00000000
     19.09714286	     -5.13499817	     -3.56696774	     12.01090201	      0.83259161	      0.91516962	      0.44487889	     -0.23960910	     -0.78258441	    -20.94254638	     20.98475102	     20.98475102	     18.23414728	     -7.59356405	     -2.83476759	     26.91159996	     -3.65182344	      6.33308611	     31.27649623	     31.27649623	     11.79060229	    -14.19750750	      8.18191569	     -8.40616579	      4.08754752	      7.02317598	     46.35270270	     -6.59653773	     11.68485016	     83.57389489	     44.01304283	      0.00000000	      0.00000000	     -7.89573231	    -11.36855289	    -10.40141977	     46.82739801	     45.56693748	      0.00000000	      0.00000000
     19.11571429	     -5.42719072	     -3.60883138	     11.77546312	      0.83261235	      0.91592548	      0.44015950	     -0.36074114	     -1.18747876	    -21.17125518	     20.89246576	     20.89246576	     17.29815072	     -7.09282713	     -4.36468373	     26.64126085	     -3.41510303	      6.20554395	     31.14090812	     31.14090812	     12.25160315	    -14.41589133	      8.82354403	     -8.29099805	      4.13424795	      6.40243084	     46.49986416	     -6.04069126	     11.18186722	     81.99912884	     44.14311836	      0.00000000	      0.00000000	     -8.24842656	    -11.97297901	    -10.18418083	     49.90912118	     45.63597011	      0.00000000	      0.00000000
     19.13428571	     -5.67051287	     -3.65642343	     11.45336732	      0.83258483	      0.91686130	      0.43554473	     -0.45657312	     -1.53067491	    -21.03793295	     20.89727013	     20.89727013	     16.68353578	     -6.82446305	     -4.60659695	     26.23181715	     -3.25812543	      5.95185176	     30.83805585	     30.83805585	     12.50419175	    -14.53983312	      8.90827525	     -8.21281099	      4.24494404	      6.57556526	     46.29010956	     -6.66740793	     10.96481032	     80.98195607	     44.19843176	      0.00000000	      0.00000000	     -7.26377791	    -12.31903899	    -10.24057946	     50.81555645	     45.67789736	      0.00000000	      0.00000000
     19.15285714	     -5.91715500	     -3.69078101	     11.11575681	      0.83252237	      0.91775662	      0.43098552	     -0.49189681	     -1.92291968	    -20.96374732	     21.00334655	     21.00334655	     16.09331401	     -6.53539973	     -4.91322113	     25.80777200	     -3.10577334	      5.62702898	     30.49715455	     30.49715455	     12.76151933	    -14.68665224	      8.97831592	     -8.08741138	      4.35780267	      6.59990944	     45.92120811	     -7.17143844	     10.63106350	     79.87998478	     44.25620369	      0.00000000	      0.00000000	     -6.38498551	    -12.72539122	    -10.22057263	     51.74691710	     45.70852596	      0.00000000	      0.00000000
     19.17142857	     -6.13128191	     -3.73424882	     10.75210289	      0.83235614	      0.91864404	      0.42649427	     -0.46354903	     -2.32174614	    -20.81185948	     21.25695359	     21.25695359	     15.47918926	     -6.30169409	     -5.27496159	     25.36602725	     -2.97343921	      5.32399990	     30.17681366	     30.17681366	     13.00443070	    -14.80725122	      9.03369597	     -8.01328854	      4.50924788	      6.56485519	     45.45721893	     -7.65265206	     10.22524116	     78.65535613	     44.31814880	      0.00000000	      0.00000000	     -5.49976923	    -13.20217794	    -10.16461099	     52.67830373	     45.73442556	      0.00000000	      0.00000000
     19.19000000	     -6.32875982	     -3.78685554	     10.34342495	      0.83211654	      0.91941324	      0.42215409	     -0.39926679	     -2.72251882	    -20.64141088	     21.51622838	     21.51622838	     14.23103685	     -6.40850828	     -7.45276887	     24.92255489	     -2.85356856	      5.04737250	     29.87948478	     29.87948478	     13.31672073	    -15.00360132	      9.20294506	     -7.91552802	      4.67100277	      6.14374840	     45.32302760	     -7.21208111	      8.81629267	     75.70169692	     44.51102057	      0.00000000	      0.00000000	     -5.24082516	    -14.14274858	     -9.13922512	     54.52097438	     45.74128106	      0.00000000	      0.00000000
